<mxfile host="65bd71144e">
    <diagram id="2KhIsbDiPvBkP_OM17Oy" name="Page-1">
        <mxGraphModel dx="614" dy="419" grid="1" gridSize="10" guides="1" tooltips="1" connect="1" arrows="1" fold="1" page="1" pageScale="1" pageWidth="850" pageHeight="1100" background="#FFFFFF" math="0" shadow="0">
            <root>
                <mxCell id="0"/>
                <mxCell id="1" parent="0"/>
                <mxCell id="54" value="" style="whiteSpace=wrap;html=1;labelBackgroundColor=none;labelBorderColor=default;strokeColor=none;fontColor=#000000;fillColor=none;" parent="1" vertex="1">
                    <mxGeometry x="80" y="30" width="530" height="270" as="geometry"/>
                </mxCell>
                <mxCell id="45" style="edgeStyle=none;html=1;strokeColor=#000000;fontColor=#000000;endArrow=circle;endFill=0;" parent="1" edge="1">
                    <mxGeometry relative="1" as="geometry">
                        <mxPoint x="580" y="150" as="targetPoint"/>
                        <mxPoint x="540" y="150" as="sourcePoint"/>
                    </mxGeometry>
                </mxCell>
                <mxCell id="46" value="UI" style="edgeLabel;html=1;align=center;verticalAlign=middle;resizable=0;points=[];fontColor=#000000;labelBackgroundColor=none;" parent="45" vertex="1" connectable="0">
                    <mxGeometry x="0.4139" y="-5" relative="1" as="geometry">
                        <mxPoint y="10" as="offset"/>
                    </mxGeometry>
                </mxCell>
                <mxCell id="48" style="edgeStyle=none;html=1;strokeColor=#000000;fontColor=#000000;endArrow=halfCircle;endFill=0;" parent="1" edge="1">
                    <mxGeometry relative="1" as="geometry">
                        <mxPoint x="130" y="150" as="targetPoint"/>
                        <mxPoint x="170" y="150" as="sourcePoint"/>
                    </mxGeometry>
                </mxCell>
                <mxCell id="49" value="IAM &lt;br&gt;API" style="edgeLabel;html=1;align=center;verticalAlign=middle;resizable=0;points=[];fontColor=#000000;labelBackgroundColor=none;" parent="48" vertex="1" connectable="0">
                    <mxGeometry x="0.7733" y="5" relative="1" as="geometry">
                        <mxPoint x="-26" y="-5" as="offset"/>
                    </mxGeometry>
                </mxCell>
                <mxCell id="51" style="edgeStyle=none;html=1;exitX=0.269;exitY=1.002;exitDx=0;exitDy=0;strokeColor=#000000;fontColor=#000000;endArrow=halfCircle;endFill=0;exitPerimeter=0;" parent="1" source="2" edge="1">
                    <mxGeometry relative="1" as="geometry">
                        <mxPoint x="270" y="260" as="targetPoint"/>
                    </mxGeometry>
                </mxCell>
                <mxCell id="52" value="SMTP API" style="edgeLabel;html=1;align=center;verticalAlign=middle;resizable=0;points=[];fontColor=#000000;labelBackgroundColor=none;" parent="51" vertex="1" connectable="0">
                    <mxGeometry x="0.8658" y="7" relative="1" as="geometry">
                        <mxPoint x="-7" y="12" as="offset"/>
                    </mxGeometry>
                </mxCell>
                <mxCell id="2" value="«System»&lt;br&gt;&lt;b&gt;SARM&lt;br&gt;&lt;br&gt;&lt;br&gt;&lt;br&gt;&lt;br&gt;&lt;br&gt;&lt;br&gt;&lt;br&gt;&lt;br&gt;&lt;br&gt;&lt;/b&gt;" style="html=1;dropTarget=0;fillColor=#fbf6e4;strokeColor=#000000;fontColor=#000000;" parent="1" vertex="1">
                    <mxGeometry x="170" y="40" width="370" height="190" as="geometry"/>
                </mxCell>
                <mxCell id="3" value="" style="shape=module;jettyWidth=8;jettyHeight=4;fillColor=#fbf6e4;strokeColor=#000000;" parent="2" vertex="1">
                    <mxGeometry x="1" width="20" height="20" relative="1" as="geometry">
                        <mxPoint x="-27" y="7" as="offset"/>
                    </mxGeometry>
                </mxCell>
                <mxCell id="39" style="edgeStyle=none;html=1;exitX=0;exitY=0.5;exitDx=0;exitDy=0;strokeColor=#000000;fontColor=#000000;endArrow=box;endFill=0;" parent="1" source="20" edge="1">
                    <mxGeometry relative="1" as="geometry">
                        <mxPoint x="170" y="149.99999999999994" as="targetPoint"/>
                    </mxGeometry>
                </mxCell>
                <mxCell id="50" style="edgeStyle=none;html=1;exitX=0.5;exitY=1;exitDx=0;exitDy=0;strokeColor=#000000;fontColor=#000000;endArrow=box;endFill=0;" parent="1" source="20" edge="1">
                    <mxGeometry relative="1" as="geometry">
                        <mxPoint x="270" y="230" as="targetPoint"/>
                    </mxGeometry>
                </mxCell>
                <mxCell id="20" value="Backend" style="html=1;dropTarget=0;fillColor=#f2dbc0;strokeColor=#000000;fontColor=#000000;" parent="1" vertex="1">
                    <mxGeometry x="210" y="125" width="120" height="50" as="geometry"/>
                </mxCell>
                <mxCell id="21" value="" style="shape=module;jettyWidth=8;jettyHeight=4;fillColor=#f2dbc0;strokeColor=#000000;" parent="20" vertex="1">
                    <mxGeometry x="1" width="20" height="20" relative="1" as="geometry">
                        <mxPoint x="-27" y="7" as="offset"/>
                    </mxGeometry>
                </mxCell>
                <mxCell id="44" style="edgeStyle=none;html=1;exitX=1;exitY=0.5;exitDx=0;exitDy=0;strokeColor=#000000;fontColor=#000000;endArrow=box;endFill=0;" parent="1" source="23" edge="1">
                    <mxGeometry relative="1" as="geometry">
                        <mxPoint x="540" y="150" as="targetPoint"/>
                    </mxGeometry>
                </mxCell>
                <mxCell id="23" value="Frontend" style="html=1;dropTarget=0;fillColor=#f2dbc0;strokeColor=#000000;fontColor=#000000;" parent="1" vertex="1">
                    <mxGeometry x="380" y="125" width="120" height="50" as="geometry"/>
                </mxCell>
                <mxCell id="24" value="" style="shape=module;jettyWidth=8;jettyHeight=4;fillColor=#f2dbc0;strokeColor=#000000;" parent="23" vertex="1">
                    <mxGeometry x="1" width="20" height="20" relative="1" as="geometry">
                        <mxPoint x="-27" y="7" as="offset"/>
                    </mxGeometry>
                </mxCell>
                <mxCell id="31" value="" style="rounded=0;orthogonalLoop=1;jettySize=auto;html=1;endArrow=none;endFill=0;sketch=0;sourcePerimeterSpacing=0;targetPerimeterSpacing=0;strokeColor=#000000;fontColor=#000000;exitX=1;exitY=0.5;exitDx=0;exitDy=0;" parent="1" source="20" target="33" edge="1">
                    <mxGeometry relative="1" as="geometry">
                        <mxPoint x="335" y="150" as="sourcePoint"/>
                    </mxGeometry>
                </mxCell>
                <mxCell id="32" value="" style="rounded=0;orthogonalLoop=1;jettySize=auto;html=1;endArrow=halfCircle;endFill=0;entryX=0.5;entryY=0.5;endSize=6;strokeWidth=1;sketch=0;strokeColor=#000000;fontColor=#000000;exitX=0;exitY=0.5;exitDx=0;exitDy=0;" parent="1" source="23" target="33" edge="1">
                    <mxGeometry relative="1" as="geometry">
                        <mxPoint x="375" y="150" as="sourcePoint"/>
                    </mxGeometry>
                </mxCell>
                <mxCell id="33" value="" style="ellipse;whiteSpace=wrap;html=1;align=center;aspect=fixed;resizable=0;points=[];outlineConnect=0;sketch=0;strokeColor=#000000;fontColor=#000000;fillColor=none;" parent="1" vertex="1">
                    <mxGeometry x="350" y="145" width="10" height="10" as="geometry"/>
                </mxCell>
            </root>
        </mxGraphModel>
    </diagram>
</mxfile>